# xmcd CD database file
#
# Track frame offsets:
#	150
#	12685
#	27307
#	37747
#	49720
#	57835
#	63567
#	69795
#	83172
#	89705
#	103615
#	115922
#	127647
#	139880
#	170142
#	181200
#
# Disc length: 2595 seconds
#
# Revision: 2
# Processed by: cddbd v1.4PL0 Copyright (c) Steve Scherf et al.
# Submitted via: CDex 1.40Beta9
#
DISCID=d60a2110
DTITLE=Gene Autry - Always Your Pal, Gene Autry
DYEAR=1900
DGENRE=Country
TTITLE0=Back In The Saddle Again
TTITLE1=There's A Great Big Candy Roundup
TTITLE2=Rusty The Rocking Horse
TTITLE3=Barney, The Bashful Bullfrog
TTITLE4=On Top Of Old Smokey
TTITLE5=The Big Corral
TTITLE6=The Old Chisholm Trail
TTITLE7=Smokey The Bear
TTITLE8=Clementine
TTITLE9=Johnny Reb And Billy Yank
TTITLE10=Bucky The Bucking Bronco
TTITLE11=Little Peter Punkin Eater
TTITLE12=Bimbo
TTITLE13=Johnny Appleseed
TTITLE14=Happy Little Island
TTITLE15=Broomstick Buckaroo
EXTD=ID3G: 2
EXTT0=
EXTT1=
EXTT2=
EXTT3=
EXTT4=
EXTT5=
EXTT6=
EXTT7=
EXTT8=
EXTT9=
EXTT10=
EXTT11=
EXTT12=
EXTT13=
EXTT14=
EXTT15=
PLAYORDER=
